<svg width="20" height="20" viewBox="0 0 20 20" fill="none" xmlns="http://www.w3.org/2000/svg">
<path fill-rule="evenodd" clip-rule="evenodd" d="M5.4222 17.3203C5.8442 17.3203 6.1872 17.6633 6.1872 18.0853C6.1872 18.5073 5.8442 18.8493 5.4222 18.8493C5.0002 18.8493 4.6582 18.5073 4.6582 18.0853C4.6582 17.6633 5.0002 17.3203 5.4222 17.3203Z" stroke="#008ECC" stroke-width="1.5" stroke-linecap="round" stroke-linejoin="round"/>
<path fill-rule="evenodd" clip-rule="evenodd" d="M16.6747 17.3203C17.0967 17.3203 17.4397 17.6633 17.4397 18.0853C17.4397 18.5073 17.0967 18.8493 16.6747 18.8493C16.2527 18.8493 15.9097 18.5073 15.9097 18.0853C15.9097 17.6633 16.2527 17.3203 16.6747 17.3203Z" stroke="#008ECC" stroke-width="1.5" stroke-linecap="round" stroke-linejoin="round"/>
<path d="M0.75 0.75L2.83 1.11L3.793 12.583C3.871 13.518 4.652 14.236 5.59 14.236H16.502C17.398 14.236 18.158 13.578 18.287 12.69L19.236 6.132C19.353 5.323 18.726 4.599 17.909 4.599H3.164" stroke="#008ECC" stroke-width="1.5" stroke-linecap="round" stroke-linejoin="round"/>
<path d="M12.1255 8.29501H14.8985" stroke="#008ECC" stroke-width="1.5" stroke-linecap="round" stroke-linejoin="round"/>
</svg>
